<svg version="1.1" xmlns="http://www.w3.org/2000/svg" xmlns:xlink="http://www.w3.org/1999/xlink" width="1280.000000pt" height="1166.000000pt" viewBox="0,0,256,233.1875"><g fill="#3949ab" fill-rule="nonzero" stroke="none" stroke-width="1" stroke-linecap="butt" stroke-linejoin="miter" stroke-miterlimit="10" stroke-dasharray="" stroke-dashoffset="0" font-family="none" font-weight="none" font-size="none" text-anchor="none" style="mix-blend-mode: normal"><g transform="translate(-0.00416,-0.04607) scale(0.2,0.2)"><g transform="translate(0,1166) scale(0.1,-0.1)"><path d="M7575,11654c-22,-2 -92,-9 -155,-14c-418,-39 -972,-153 -1240,-255c-559,-213 -1263,-850 -1792,-1620c-100,-146 -234,-371 -348,-585c-430,-806 -668,-1093 -990,-1191c-60,-18 -100,-23 -195,-24c-167,0 -274,23 -603,129c-290,93 -501,130 -752,129c-237,0 -409,-37 -585,-123c-121,-60 -611,-446 -786,-620c-116,-116 -139,-162 -122,-245c15,-70 78,-205 96,-205c18,0 48,34 81,92c75,130 217,200 406,200c151,0 251,-37 350,-129c178,-164 287,-441 430,-1088c101,-458 146,-592 244,-728c89,-126 198,-209 456,-347c550,-295 1154,-767 1359,-1064c84,-121 147,-262 218,-480c184,-571 280,-818 455,-1166c70,-140 128,-259 127,-265c0,-11 -443,-412 -582,-528c-183,-152 -385,-270 -572,-333c-191,-63 -354,-89 -645,-99c-198,-7 -262,-17 -400,-62c-305,-99 -629,-311 -630,-414c0,-37 33,-49 173,-62c200,-19 576,11 897,71c129,24 168,27 355,26c174,0 231,-4 330,-22c347,-65 555,-180 555,-306c0,-16 11,-38 26,-53c23,-23 31,-25 98,-21c61,3 86,10 152,43c146,74 273,234 290,367c9,64 -26,124 -109,185c-114,84 -231,132 -371,150c-121,16 -104,56 119,278c228,228 372,344 545,438c100,55 165,74 287,86c206,21 396,94 553,212c92,70 153,138 224,254c100,161 170,235 224,235c69,0 294,-96 530,-226c457,-253 831,-508 1207,-824c484,-408 721,-569 893,-610c72,-17 114,-8 179,37c48,33 63,38 107,37c68,-2 121,-27 284,-132c376,-244 1263,-685 1532,-763c111,-32 124,-29 199,50c59,61 74,71 136,90c46,15 116,25 207,30c157,10 201,26 206,74c3,23 -9,40 -70,101c-87,86 -186,152 -539,358c-324,190 -561,340 -954,603c-843,566 -1659,1169 -1928,1425c-151,143 -300,399 -447,765c-133,332 -227,530 -315,663c-86,130 -73,189 74,345c95,100 210,191 297,233c54,27 65,28 221,31c169,3 307,24 386,57c21,9 58,35 83,58c60,55 81,123 63,205c-23,115 -72,199 -253,441c-59,79 -106,146 -104,148c3,2 56,19 119,38c255,76 354,92 1031,166c222,24 323,44 398,77c113,50 134,94 148,311c13,216 29,228 240,173c125,-32 332,-65 472,-76c312,-23 486,-64 700,-165c235,-111 359,-119 390,-26c34,105 -68,272 -345,566c-292,309 -321,388 -104,290c137,-61 275,-94 528,-126c164,-20 396,-20 476,1c250,66 151,248 -295,543c-289,190 -440,306 -422,324c15,15 142,-7 335,-56c96,-25 228,-54 293,-65c429,-72 844,-40 902,69c30,56 -12,190 -84,269c-129,143 -779,478 -1689,871c-437,189 -663,280 -1506,608c-532,207 -699,280 -699,304c0,20 43,20 254,-1c383,-37 776,-66 1376,-100c681,-40 799,-44 1095,-44c405,0 465,13 592,135c65,62 164,115 258,137c27,7 100,17 163,22c194,15 342,80 402,176c50,79 37,117 -63,185c-241,164 -911,353 -1942,548c-828,156 -1440,237 -2090,275c-368,21 -413,25 -567,41c-176,18 -233,31 -265,58c-33,28 -27,48 36,124c104,125 163,231 145,260c-21,32 -84,44 -249,47c-88,2 -178,1 -200,-1z"></path></g></g></g></svg>