<svg version="1.1" xmlns="http://www.w3.org/2000/svg" xmlns:xlink="http://www.w3.org/1999/xlink" width="1280.000000pt" height="1048.000000pt" viewBox="0,0,256,209.59375"><g fill="#3949ab" fill-rule="nonzero" stroke="none" stroke-width="1" stroke-linecap="butt" stroke-linejoin="miter" stroke-miterlimit="10" stroke-dasharray="" stroke-dashoffset="0" font-family="none" font-weight="none" font-size="none" text-anchor="none" style="mix-blend-mode: normal"><g transform="translate(-0.01366,-0.00827) scale(0.2,0.2)"><g transform="translate(0,1048) scale(0.1,-0.1)"><path d="M10365,10460c-168,-33 -366,-115 -477,-196c-65,-48 -154,-147 -182,-202c-13,-26 -39,-108 -57,-182c-42,-168 -47,-291 -13,-337c38,-51 80,-68 169,-68c102,0 145,20 245,109c183,166 357,220 526,164c184,-60 426,-268 536,-459c94,-163 120,-286 122,-564c1,-184 -2,-215 -32,-390c-90,-518 -185,-816 -384,-1208c-52,-101 -74,-133 -152,-215c-137,-143 -396,-357 -481,-397c-140,-65 -270,-72 -508,-25c-350,68 -611,97 -972,106c-308,8 -548,-5 -1121,-61c-714,-71 -681,-66 -2239,-294c-225,-33 -446,-65 -490,-71c-44,-7 -117,-27 -161,-45c-113,-46 -181,-58 -314,-57c-88,0 -152,8 -270,32c-256,52 -396,88 -470,119c-77,33 -432,271 -653,440c-172,130 -254,180 -393,237c-274,113 -417,219 -620,456c-135,158 -243,275 -278,302l-33,25l-37,-50c-29,-40 -42,-49 -66,-49c-17,0 -39,-9 -51,-21c-22,-22 -22,-26 -14,-208c9,-231 8,-264 -10,-307c-21,-50 -59,-81 -160,-128c-234,-110 -334,-210 -484,-486c-84,-154 -136,-224 -244,-333c-52,-52 -105,-116 -121,-146c-45,-85 -41,-113 43,-276c128,-249 184,-328 272,-385c83,-54 138,-65 273,-55c61,5 141,8 178,8c129,-2 254,-55 362,-154c35,-33 71,-59 79,-59c29,0 98,-61 147,-132c59,-84 166,-299 235,-473l48,-120l-12,-315c-7,-173 -19,-434 -28,-580c-8,-146 -16,-364 -17,-485l-1,-220l-83,-205c-46,-113 -101,-238 -122,-278c-69,-129 -287,-442 -483,-694c-168,-216 -674,-736 -774,-795c-46,-27 -54,-28 -178,-29c-113,0 -136,-3 -172,-22c-23,-12 -66,-31 -95,-43c-67,-26 -101,-58 -128,-122c-37,-85 -18,-177 49,-244c25,-25 44,-32 133,-47c132,-23 377,-32 493,-17c101,12 192,51 285,119c141,105 167,120 244,141c43,12 92,29 109,38c18,9 118,100 222,202c233,228 345,319 590,479c296,194 443,308 595,462c74,75 162,156 195,180c98,71 349,327 378,386c46,92 170,197 358,304c58,33 127,78 152,100c60,53 93,59 141,26c48,-32 96,-46 163,-46c67,0 376,-36 478,-56c190,-36 235,-80 417,-405c329,-589 347,-625 477,-947c154,-383 171,-441 134,-474c-10,-9 -51,-27 -92,-41c-94,-33 -146,-69 -179,-126c-37,-62 -35,-143 6,-264c16,-48 31,-89 34,-92c12,-13 301,-48 433,-52c169,-6 280,7 319,38c46,36 61,106 61,289c0,331 -43,723 -119,1092c-70,336 -206,1089 -206,1140c0,24 6,27 107,52c58,15 126,36 150,47c85,39 362,48 863,29c374,-15 516,-26 750,-59c317,-45 335,-46 429,-22c96,25 121,26 188,6c110,-33 173,-99 218,-230c63,-182 107,-257 239,-410c157,-181 447,-581 537,-740c53,-94 49,-182 -11,-270c-27,-39 -218,-256 -390,-444c-110,-120 -120,-125 -231,-116c-87,7 -88,7 -166,-30c-102,-50 -215,-158 -233,-225c-22,-81 20,-230 76,-266c19,-13 53,-19 120,-22c84,-4 420,10 604,24l75,6l85,87c47,47 177,192 288,321c111,129 220,249 241,265c50,38 128,132 180,217c101,166 302,593 316,673c4,17 -10,127 -29,245c-48,297 -65,434 -73,585c-6,143 -1,168 41,179c25,6 339,-86 720,-210c93,-31 221,-66 285,-79c140,-29 213,-54 300,-101c181,-99 297,-225 386,-417c54,-117 190,-511 229,-664c20,-78 43,-193 51,-256c19,-159 61,-239 189,-369c55,-56 73,-68 99,-68c39,0 114,48 191,123c70,69 86,119 86,273v112l-71,189c-258,684 -317,871 -374,1187c-14,77 -31,157 -37,176c-17,57 -86,217 -149,347c-57,116 -62,123 -113,152c-82,46 -166,120 -230,205c-32,42 -89,101 -127,132c-76,62 -124,127 -139,188c-15,60 -35,96 -100,177c-41,51 -60,85 -65,113c-25,158 -36,256 -50,436c-9,113 -20,219 -25,236c-7,19 -7,48 0,81c11,61 -4,133 -46,216c-48,94 -135,291 -161,362c-20,58 -26,99 -33,232c-5,88 -13,169 -18,180c-23,43 -33,131 -23,190c17,89 64,177 262,489c108,172 206,338 241,413c79,168 96,201 161,303c59,95 114,216 148,330c12,40 40,111 64,158c47,93 69,161 144,445c80,303 86,343 86,635c0,284 -10,370 -70,606c-61,238 -169,486 -299,684c-90,137 -116,164 -186,190c-43,16 -77,39 -119,80c-105,102 -355,253 -550,331c-93,37 -128,44 -191,38c-8,-1 -42,6 -75,15c-76,20 -176,19 -290,-4z"></path></g></g></g></svg>