<svg version="1.1" xmlns="http://www.w3.org/2000/svg" xmlns:xlink="http://www.w3.org/1999/xlink" width="1280.000000pt" height="963.000000pt" viewBox="0,0,256,192.59375"><g fill="#3949ab" fill-rule="nonzero" stroke="none" stroke-width="1" stroke-linecap="butt" stroke-linejoin="miter" stroke-miterlimit="10" stroke-dasharray="" stroke-dashoffset="0" font-family="none" font-weight="none" font-size="none" text-anchor="none" style="mix-blend-mode: normal"><g transform="translate(-0.10567,-0.30312) scale(0.2,0.2)"><g transform="translate(0,963) scale(0.1,-0.1)"><path d="M11474,9558c-39,-88 -160,-221 -278,-306c-44,-31 -117,-93 -164,-137c-93,-88 -268,-283 -322,-358c-27,-38 -49,-56 -97,-77c-136,-62 -304,-190 -419,-320c-158,-178 -241,-313 -474,-770c-263,-514 -335,-628 -480,-763c-119,-110 -252,-169 -755,-332c-347,-112 -427,-142 -625,-235c-251,-118 -522,-190 -890,-235c-176,-22 -635,-30 -845,-15c-182,12 -679,26 -885,24c-173,-3 -261,-18 -430,-74c-80,-27 -224,-73 -320,-103c-172,-54 -178,-55 -359,-66c-669,-41 -1361,-302 -2064,-777c-213,-144 -333,-193 -571,-234c-299,-51 -596,-37 -1162,55c-221,36 -308,45 -321,31c-4,-4 10,-23 32,-42c47,-41 189,-89 489,-164c313,-78 465,-101 716,-107c170,-4 239,-2 328,11c297,44 473,114 982,392c141,77 287,149 345,169c154,56 569,175 578,166c12,-12 -40,-140 -78,-191c-18,-25 -63,-69 -99,-98c-104,-85 -151,-142 -169,-209c-31,-113 -37,-205 -37,-529c0,-656 -36,-805 -358,-1467c-168,-345 -296,-537 -369,-552c-48,-10 -58,-21 -70,-76c-31,-140 -27,-337 17,-789c41,-421 44,-470 42,-780c-1,-193 3,-330 9,-354c12,-43 85,-123 138,-151c91,-47 284,-59 397,-24c85,26 221,95 234,119c32,59 -93,204 -263,305c-54,32 -100,61 -103,66c-2,5 -12,113 -20,241c-19,275 -14,648 11,803c35,228 76,325 184,438c169,177 331,281 801,516c470,234 557,289 701,438c150,154 224,313 248,533c18,161 60,161 487,-4c295,-114 376,-137 500,-143c81,-4 106,-2 132,11l32,17v87c0,110 13,137 60,136c120,-4 384,-25 430,-34c30,-6 183,-53 340,-104c338,-112 455,-146 627,-185c500,-113 924,-105 1463,29c87,22 151,30 265,36l150,7l32,-27c52,-43 55,-85 50,-540c-2,-220 -9,-448 -15,-506c-12,-103 -30,-536 -37,-840c-4,-162 -8,-194 -49,-356c-36,-146 -46,-208 -47,-321c-1,-68 2,-107 10,-117c7,-8 35,-22 62,-31c57,-19 74,-41 83,-105c6,-39 11,-48 36,-57c34,-13 62,-54 92,-138c15,-39 37,-74 64,-100c22,-22 44,-52 47,-67c10,-40 66,-99 113,-119c58,-26 206,-59 265,-59c55,0 247,32 319,53c52,15 68,39 77,117c14,118 -69,210 -190,210c-16,0 -67,18 -114,41c-115,55 -173,112 -202,201c-62,186 -49,394 69,1108c27,162 54,349 60,415c9,98 21,147 61,270c50,149 51,151 59,330c10,206 33,341 89,540c63,219 139,411 258,650c57,112 90,165 134,213c66,72 140,208 189,347c96,273 112,450 86,925c-31,555 -36,737 -26,915c16,298 55,494 136,685c44,103 127,240 151,248c20,6 91,-67 118,-122c15,-31 37,-113 55,-204c55,-288 88,-322 328,-347c75,-8 153,-17 172,-20c208,-30 415,-25 545,16c61,19 78,30 134,88c79,81 359,403 383,439c25,38 23,55 -19,136c-32,61 -69,103 -273,306c-257,255 -312,322 -373,448c-35,72 -40,93 -45,173l-5,91l-57,77c-31,42 -111,130 -176,196c-204,205 -255,265 -290,340c-64,140 -76,260 -49,480c17,133 19,235 7,235c-5,0 -18,-19 -28,-42z"></path></g></g></g></svg>