<svg version="1.1" xmlns="http://www.w3.org/2000/svg" xmlns:xlink="http://www.w3.org/1999/xlink" width="1920pt" height="1920pt" viewBox="0,0,256,256"><g fill="#3949ab" fill-rule="nonzero" stroke="none" stroke-width="2" stroke-linecap="butt" stroke-linejoin="miter" stroke-miterlimit="10" stroke-dasharray="" stroke-dashoffset="0" font-family="none" font-weight="none" font-size="none" text-anchor="none" style="mix-blend-mode: normal"><g transform="translate(0.01244,-0.01185) scale(0.13333,0.13333)"><path transform="translate(0,1920) scale(0.1,-0.1)" d="M4390,19190c-381,-48 -742,-238 -990,-522c-442,-507 -551,-1251 -280,-1914c73,-180 163,-325 334,-538l28,-36l-120,-182c-451,-686 -729,-1379 -876,-2176c-13,-74 -26,-135 -28,-137c-1,-1 -79,-6 -173,-9c-639,-23 -1115,-90 -1673,-237c-141,-37 -443,-128 -537,-161c-47,-18 -71,-53 -61,-92c14,-56 38,-55 254,12c431,134 772,213 1172,272c272,39 654,70 889,70h113l-5,-32c-4,-18 -27,-172 -52,-343c-26,-170 -50,-313 -53,-316c-4,-4 -68,-19 -142,-33c-616,-118 -1250,-339 -1870,-653c-246,-125 -270,-142 -270,-188c0,-35 28,-65 60,-65c8,0 130,58 270,129c503,255 961,430 1455,556c248,63 464,110 472,101c3,-3 -96,-684 -221,-1513c-258,-1722 -256,-1708 -290,-2063c-44,-467 -51,-626 -50,-1180c1,-692 31,-1096 124,-1665c21,-132 39,-256 38,-275c-2,-118 174,-762 307,-1120c478,-1286 1456,-2383 2812,-3153c155,-89 440,-234 582,-297l84,-38l-120,-61c-476,-243 -771,-611 -723,-904c23,-147 112,-254 274,-331c112,-54 185,-73 343,-88c427,-41 975,125 1362,412c160,118 307,281 369,406c24,50 26,51 56,43c50,-15 459,-105 601,-133c326,-65 784,-128 1145,-158c234,-20 991,-16 1240,5c489,43 919,108 1333,202c171,39 193,42 202,28c135,-212 299,-366 541,-509c440,-259 998,-365 1384,-264c178,46 325,151 385,274c34,70 45,185 25,275c-52,242 -307,517 -658,712l-113,62l83,37c1297,578 2403,1501 3031,2528c396,648 606,1245 726,2065c150,1022 158,2090 25,3277c-31,278 -33,288 -260,1798c-102,679 -184,1236 -181,1238c7,7 364,-65 547,-111c552,-138 1114,-354 1608,-619c81,-43 154,-76 171,-76c62,0 85,82 33,119c-46,33 -384,204 -554,280c-559,252 -1126,428 -1708,531c-63,11 -117,23 -121,28c-10,12 -102,652 -95,660c11,10 407,4 596,-8c570,-39 1166,-156 1742,-343c122,-39 139,-43 166,-32c39,17 50,59 25,93c-21,28 -49,39 -293,113c-686,209 -1398,319 -2068,319h-198l-33,223c-76,516 -153,840 -293,1237c-134,380 -341,806 -568,1166l-60,95l58,82c120,168 208,341 271,533c316,962 -175,1958 -1114,2264c-624,203 -1314,55 -1855,-398c-53,-44 -101,-86 -108,-95c-11,-13 -31,-6 -150,48c-808,368 -1667,585 -2592,655c-191,15 -926,21 -1159,10c-969,-46 -1942,-282 -2796,-678c-118,-55 -152,-67 -160,-57c-5,7 -38,53 -72,102c-257,367 -674,638 -1108,723c-127,24 -368,34 -485,20z"></path></g></g></svg>